2012 (2009) R5 DVDRip XviD-MAX (English BEST QUALITY) 
http://torrents.thepiratebay.org/5193947/2012_(2009)_R5_DVDRip_XviD-MAX.5193947.TPB.torrent

2012 (2009) PROPER TS XviD-MAX

Format                           : AVI
Format/Info                      : Audio Video Interleave
Format profile                   : OpenDML
File size                        : 1.37 GiB
Duration                         : 2h 22mn
Overall bit rate                 : 1 377 Kbps
Writing application              : VirtualDubMod 1.5.10.2 (build 2542/release)
Writing library                  : VirtualDubMod build 2542/release
Original source form             : MAX TORRENTZ
Copyright                        : SIGISMUNT

Video
ID                               : 0
Format                           : MPEG-4 Visual
Format profile                   : AdvancedSimple@L5
Format settings, BVOP            : Yes
Format settings, QPel            : No
Format settings, GMC             : No warppoints
Format settings, Matrix          : Default (H.263)
Muxing mode                      : Packed bitstream
Codec ID                         : XVID
Codec ID/Hint                    : XviD
Duration                         : 2h 22mn
Bit rate                         : 1 229 Kbps
Width                            : 720 pixels
Height                           : 288 pixels
Display aspect ratio             : 2.500
Frame rate                       : 25.000 fps
Resolution                       : 24 bits
Colorimetry                      : 4:2:0
Scan type                        : Progressive
Bits/(Pixel*Frame)               : 0.237
Stream size                      : 1.22 GiB (89%)
Writing library                  : XviD 1.2.1 (UTC 2008-12-04)

Audio
ID                               : 1
Format                           : MPEG Audio
Format version                   : Version 1
Format profile                   : Layer 3
Codec ID                         : 55
Codec ID/Hint                    : MP3
Duration                         : 2h 22mn
Bit rate mode                    : Variable
Bit rate                         : 139 Kbps
Channel(s)                       : 2 channels
Sampling rate                    : 44.1 KHz
Resolution                       : 16 bits
Stream size                      : 142 MiB (10%)
Alignment                        : Aligned on interleaves
Interleave, duration             : 26 ms (0.65 video frame)
Interleave, preload duration     : 155 ms
Note: Best quality untill dvd copy will be out (aprox. 2 months) , perfect video with perfect audio sync 
http://www.imdb.com/title/tt1190080/


Screens: 
http://www.postimg.com/image/9000/8182.jpg 
http://www.postimg.com/image/9000/8138.jpg 
http://www.postimg.com/image/9000/8139.jpg 
http://www.postimg.com/image/9000/8140.jpg

ScreenCaps: 
http://www.postimg.com/image/9000/8141.jpg

2012 (2009) PROPER TS XviD-MAX Torrent Free Download 
http://thepiratebay.org/user/extremezone/0/7